<?xml version="1.0" encoding="UTF-8" standalone="no"?>
<!-- Created with Inkscape (http://www.inkscape.org/) -->

<svg
   version="1.1"
   id="svg739"
   width="40"
   height="40"
   viewBox="0 0 40 40"
   sodipodi:docname="rect234.svg"
   xml:space="preserve"
   inkscape:version="1.2.2 (732a01da63, 2022-12-09)"
   xmlns:inkscape="http://www.inkscape.org/namespaces/inkscape"
   xmlns:sodipodi="http://sodipodi.sourceforge.net/DTD/sodipodi-0.dtd"
   xmlns:xlink="http://www.w3.org/1999/xlink"
   xmlns="http://www.w3.org/2000/svg"
   xmlns:svg="http://www.w3.org/2000/svg"><defs
     id="defs743"><linearGradient
       inkscape:collect="always"
       id="linearGradient23530"><stop
         style="stop-color:#00d400;stop-opacity:1;"
         offset="0"
         id="stop23526" /><stop
         style="stop-color:#000000;stop-opacity:0.99285716;"
         offset="1"
         id="stop23528" /></linearGradient><linearGradient
       inkscape:collect="always"
       id="linearGradient23407"><stop
         style="stop-color:#20ffff;stop-opacity:1;"
         offset="0"
         id="stop23405" /><stop
         style="stop-color:#002ff0;stop-opacity:1;"
         offset="1"
         id="stop23403" /></linearGradient><radialGradient
       inkscape:collect="always"
       xlink:href="#linearGradient23407"
       id="radialGradient23409"
       cx="-1747.5422"
       cy="-493.45343"
       fx="-1747.5422"
       fy="-493.45343"
       r="399.646"
       gradientTransform="matrix(0.05151103,-0.00117196,0.00110317,0.0484042,110.00792,41.479327)"
       gradientUnits="userSpaceOnUse" /><radialGradient
       inkscape:collect="always"
       xlink:href="#linearGradient23530"
       id="radialGradient23532"
       cx="-1991.3514"
       cy="-502.21762"
       fx="-1991.3514"
       fy="-502.21762"
       r="349.65445"
       gradientTransform="matrix(0.23948332,-4.4939964e-4,2.80724e-4,0.14940478,-1893.1535,-828.92367)"
       gradientUnits="userSpaceOnUse" /></defs><sodipodi:namedview
     id="namedview741"
     pagecolor="#ffffff"
     bordercolor="#000000"
     borderopacity="0.25"
     inkscape:showpageshadow="2"
     inkscape:pageopacity="0.0"
     inkscape:pagecheckerboard="0"
     inkscape:deskcolor="#d1d1d1"
     showgrid="false"
     inkscape:zoom="0.68496197"
     inkscape:cx="-2072.3778"
     inkscape:cy="-956.98744"
     inkscape:window-width="1920"
     inkscape:window-height="1054"
     inkscape:window-x="-9"
     inkscape:window-y="-9"
     inkscape:window-maximized="1"
     inkscape:current-layer="svg739" /><g
     inkscape:groupmode="layer"
     inkscape:label="Image"
     id="g745"
     transform="translate(2390.1472,924.16492)"><ellipse
       style="fill:url(#radialGradient23532);fill-opacity:1;stroke:none;stroke-width:0;stroke-linecap:round;stroke-dasharray:none;paint-order:stroke fill markers"
       id="path23465"
       cx="-2370.2996"
       cy="-903.01794"
       rx="17.498213"
       ry="17.486929"
       inkscape:label="path23465"
       inkscape:export-filename="..\..\..\Dimajs\ggs\images\arrow..svg"
       inkscape:export-xdpi="96"
       inkscape:export-ydpi="96" /></g><path
     style="fill:url(#radialGradient23409);fill-opacity:1;stroke-width:0.050028"
     d="m 18.532817,39.950367 c -4.109,-0.30128 -8.1286,-1.91339 -11.2850002,-4.52594 -0.7614,-0.63023 -2.2499,-2.14331 -2.8477,-2.89474 -3.0377,-3.81875 -4.5212,-8.29523 -4.3925,-13.25484 0.1048,-4.04206 1.4545,-7.87559 3.9615,-11.25271 2.9756,-4.00818 7.6026002,-6.85694 12.5369002,-7.71866001 4.262,-0.74433 8.6148,-0.11127 12.4447,1.80992001 5.8731,2.94614 9.9177,8.5531 10.8464,15.03593 0.2183,1.52425 0.2674,3.7012 0.1128,5.00121 -0.3989,3.35323 -1.4749,6.28605 -3.2987,8.99124 -2.2581,3.34928 -5.3716,5.8727 -9.1455,7.41235 -2.7145,1.10743 -5.9579,1.61438 -8.9329,1.39624 z m 4.554,-6.94846 c 0.8102,-0.24895 0.5691,-0.0292 6.082,-5.54369 3.7934,-3.7946 5.1228,-5.15443 5.2457,-5.36597 0.091,-0.15583 0.2238,-0.4484 0.2962,-0.65015 0.1137,-0.31666 0.132,-0.44889 0.1341,-0.96696 0.01,-0.70148 -0.095,-1.06049 -0.4315,-1.58491 -0.1434,-0.22341 -1.5635,-1.67893 -4.8637,-4.98477 -2.5637,-2.56807 -4.8526,-4.83877 -5.0866,-5.04599 -0.6814,-0.60358 -1.3451,-0.86629 -2.1916,-0.8675 -1.0013,-10e-4 -1.8454,0.45357 -2.3916,1.28908 -0.6044,0.92454 -0.5907,2.24503 0.033,3.22109 0.142,0.22215 0.9403,1.05735 2.5896,2.70923 l 2.3843,2.38807 h -8.5348 c -8.5005002,0 -8.5365002,4e-4 -8.9572002,0.10494 -0.8643,0.21471 -1.5712,0.78026 -1.9399,1.55185 -0.2272,0.4755 -0.3091,0.81016 -0.3091,1.26219 0,1.31197 0.8277,2.44054 2.1018,2.86561 0.2616,0.0873 0.7028,0.0931 8.8942002,0.11683 l 8.6189,0.025 -1.6636,1.67541 c -2.97,2.99104 -3.1923,3.22969 -3.4017,3.65088 -0.2795,0.56208 -0.3533,0.9194 -0.325,1.57442 0.028,0.64395 0.131,0.96859 0.4724,1.48669 0.3683,0.55892 1.0361,1.00918 1.7321,1.16785 0.4084,0.0931 1.0626,0.0588 1.5117,-0.0792 z"
     id="path20589"
     inkscape:export-filename="..\..\..\Dimajs\ggs\images\arrow.svg"
     inkscape:export-xdpi="95.999992"
     inkscape:export-ydpi="95.999992" /></svg>
